<svg width="20" height="20" viewBox="0 0 20 20" fill="none" xmlns="http://www.w3.org/2000/svg">
<path d="M18 20H2C1.46957 20 0.960859 19.7893 0.585786 19.4142C0.210714 19.0391 0 18.5304 0 18V7.04899C0.0166235 6.71844 0.113779 6.39695 0.283011 6.11252C0.452244 5.82808 0.688425 5.58932 0.971 5.41699L8.971 0.616995C9.28172 0.430686 9.63721 0.332275 9.9995 0.332275C10.3618 0.332275 10.7173 0.430686 11.028 0.616995L19.028 5.41699C19.629 5.77999 19.998 6.42999 20 7.13199V18C20 18.5304 19.7893 19.0391 19.4142 19.4142C19.0391 19.7893 18.5304 20 18 20ZM2 7.86799V18H18V7.86799L10 13.201L2 7.86799ZM10 2.33199L3.316 6.34199L10 10.798L16.683 6.34199L10 2.33199Z" fill="#F0F5F9"/>
</svg>
