<svg width="201" height="31" viewBox="0 0 201 31" fill="none" xmlns="http://www.w3.org/2000/svg">
<path d="M39.84 13L41.744 3.2H43.536L45.734 8.982L47.932 3.2H49.724L51.628 13H49.486L48.464 7.708L46.462 13H45.006L43.004 7.708L41.982 13H39.84ZM52.9377 9.528V6H55.0377V9.5C55.0377 9.808 55.1007 10.088 55.2267 10.34C55.3527 10.592 55.53 10.7927 55.7587 10.942C55.9873 11.0913 56.2557 11.166 56.5637 11.166C56.867 11.166 57.1213 11.0913 57.3267 10.942C57.532 10.7927 57.686 10.592 57.7887 10.34C57.896 10.088 57.9497 9.808 57.9497 9.5V6H60.0497V13H57.9497V12.356C57.735 12.5987 57.4807 12.7993 57.1867 12.958C56.8973 13.1167 56.5637 13.196 56.1857 13.196C55.5137 13.196 54.935 13.0327 54.4497 12.706C53.969 12.3747 53.598 11.9313 53.3367 11.376C53.0753 10.8207 52.9423 10.2047 52.9377 9.528ZM63.8147 13.126C63.46 13.0933 63.1193 13.0163 62.7927 12.895C62.466 12.7737 62.1743 12.608 61.9177 12.398C61.661 12.188 61.458 11.9313 61.3087 11.628L63.0727 10.872C63.1193 10.9233 63.1847 10.9887 63.2687 11.068C63.3527 11.1427 63.4577 11.2103 63.5837 11.271C63.7143 11.3317 63.8707 11.362 64.0527 11.362C64.174 11.362 64.2907 11.3503 64.4027 11.327C64.5193 11.299 64.6127 11.2523 64.6827 11.187C64.7573 11.1217 64.7947 11.0307 64.7947 10.914C64.7947 10.7833 64.7457 10.6853 64.6477 10.62C64.5543 10.55 64.44 10.501 64.3047 10.473C64.1693 10.4403 64.0433 10.4147 63.9267 10.396C63.5113 10.3307 63.1123 10.2 62.7297 10.004C62.3517 9.80333 62.0413 9.54433 61.7987 9.227C61.556 8.905 61.4347 8.52933 61.4347 8.1C61.4347 7.61933 61.556 7.204 61.7987 6.854C62.046 6.504 62.3703 6.23567 62.7717 6.049C63.173 5.85767 63.6047 5.762 64.0667 5.762C64.6127 5.762 65.1167 5.874 65.5787 6.098C66.0453 6.322 66.428 6.644 66.7267 7.064L65.0747 8.044C65.0187 7.974 64.9487 7.904 64.8647 7.834C64.7853 7.75933 64.692 7.69633 64.5847 7.645C64.482 7.589 64.37 7.554 64.2487 7.54C64.0853 7.526 63.9383 7.533 63.8077 7.561C63.6817 7.58433 63.5813 7.63567 63.5067 7.715C63.432 7.78967 63.3947 7.89933 63.3947 8.044C63.3947 8.17933 63.46 8.27733 63.5907 8.338C63.7213 8.39867 63.8683 8.443 64.0317 8.471C64.195 8.499 64.328 8.52933 64.4307 8.562C64.832 8.69267 65.21 8.863 65.5647 9.073C65.9193 9.283 66.204 9.53733 66.4187 9.836C66.638 10.1347 66.7407 10.4847 66.7267 10.886C66.7267 11.3527 66.5867 11.7633 66.3067 12.118C66.0267 12.4727 65.665 12.741 65.2217 12.923C64.7783 13.105 64.3093 13.1727 63.8147 13.126ZM67.922 6H70.022V13H67.922V6ZM68.979 5.132C68.6804 5.132 68.4284 5.03167 68.223 4.831C68.0177 4.63033 67.915 4.38067 67.915 4.082C67.915 3.788 68.0177 3.54067 68.223 3.34C68.4284 3.13467 68.6804 3.032 68.979 3.032C69.273 3.032 69.5204 3.13467 69.721 3.34C69.9264 3.54067 70.029 3.788 70.029 4.082C70.029 4.38067 69.9264 4.63033 69.721 4.831C69.5204 5.03167 69.273 5.132 68.979 5.132ZM76.5468 10.704L78.4368 11.726C78.1148 12.1647 77.7111 12.517 77.2258 12.783C76.7405 13.049 76.2108 13.182 75.6368 13.182C74.9928 13.182 74.4048 13.0163 73.8728 12.685C73.3455 12.3537 72.9231 11.9103 72.6058 11.355C72.2931 10.795 72.1368 10.1767 72.1368 9.5C72.1368 8.98667 72.2278 8.50833 72.4098 8.065C72.5918 7.617 72.8415 7.225 73.1588 6.889C73.4808 6.54833 73.8541 6.28233 74.2788 6.091C74.7035 5.89967 75.1561 5.804 75.6368 5.804C76.2108 5.804 76.7405 5.937 77.2258 6.203C77.7111 6.469 78.1148 6.826 78.4368 7.274L76.5468 8.296C76.4208 8.17 76.2785 8.07433 76.1198 8.009C75.9658 7.939 75.8048 7.904 75.6368 7.904C75.3708 7.904 75.1328 7.97867 74.9228 8.128C74.7128 8.27733 74.5448 8.47333 74.4188 8.716C74.2975 8.95867 74.2368 9.22 74.2368 9.5C74.2368 9.77533 74.2975 10.0343 74.4188 10.277C74.5448 10.515 74.7128 10.7087 74.9228 10.858C75.1328 11.0073 75.3708 11.082 75.6368 11.082C75.8048 11.082 75.9658 11.0493 76.1198 10.984C76.2785 10.914 76.4208 10.8207 76.5468 10.704ZM83.0568 13V3.2H86.7668C87.3035 3.2 87.7888 3.312 88.2228 3.536C88.6568 3.75533 88.9998 4.068 89.2518 4.474C89.5085 4.88 89.6368 5.356 89.6368 5.902C89.6368 6.10733 89.6111 6.32433 89.5598 6.553C89.5085 6.777 89.4175 6.987 89.2868 7.183C89.1561 7.379 88.9695 7.533 88.7268 7.645C89.0395 7.71967 89.2868 7.85967 89.4688 8.065C89.6508 8.27033 89.7861 8.50833 89.8748 8.779C89.9681 9.045 90.0288 9.31567 90.0568 9.591C90.0848 9.86167 90.0988 10.1067 90.0988 10.326C90.0988 10.8207 89.9658 11.271 89.6998 11.677C89.4338 12.0783 89.0768 12.4003 88.6288 12.643C88.1808 12.881 87.6861 13 87.1448 13H83.0568ZM85.1568 11.222H86.9208C87.1635 11.222 87.3828 11.166 87.5788 11.054C87.7795 10.9373 87.9381 10.7787 88.0548 10.578C88.1761 10.3773 88.2368 10.1487 88.2368 9.892C88.2368 9.67733 88.1761 9.47433 88.0548 9.283C87.9381 9.087 87.7795 8.92833 87.5788 8.807C87.3828 8.68567 87.1635 8.625 86.9208 8.625H85.1568V11.222ZM85.1568 6.875H86.5148C86.7948 6.875 87.0351 6.78167 87.2358 6.595C87.4365 6.40833 87.5368 6.17267 87.5368 5.888C87.5368 5.59867 87.4365 5.377 87.2358 5.223C87.0351 5.069 86.7948 4.992 86.5148 4.992H85.1568V6.875ZM96.6023 6H98.7023V13H96.5953L96.4973 12.37C96.3247 12.6127 96.1053 12.8087 95.8393 12.958C95.578 13.1073 95.2723 13.182 94.9223 13.182C94.3997 13.182 93.9097 13.084 93.4523 12.888C92.9997 12.692 92.6007 12.4213 92.2553 12.076C91.91 11.726 91.6393 11.3247 91.4433 10.872C91.252 10.4147 91.1563 9.92467 91.1563 9.402C91.1563 8.90267 91.2473 8.436 91.4293 8.002C91.6113 7.568 91.8657 7.18767 92.1923 6.861C92.5237 6.52967 92.904 6.27067 93.3333 6.084C93.7673 5.89733 94.2317 5.804 94.7263 5.804C95.1277 5.804 95.4917 5.888 95.8183 6.056C96.1497 6.21933 96.4437 6.42467 96.7003 6.672L96.6023 6ZM94.9853 11.166C95.2887 11.166 95.557 11.0867 95.7903 10.928C96.0237 10.7647 96.1987 10.55 96.3153 10.284C96.4367 10.018 96.4763 9.724 96.4343 9.402C96.3923 9.11267 96.2873 8.849 96.1193 8.611C95.9513 8.373 95.7437 8.184 95.4963 8.044C95.2537 7.904 94.9947 7.834 94.7193 7.834C94.4207 7.834 94.1547 7.91333 93.9213 8.072C93.6927 8.23067 93.52 8.443 93.4033 8.709C93.2867 8.975 93.247 9.27133 93.2843 9.598C93.331 9.88267 93.436 10.144 93.5993 10.382C93.7673 10.62 93.9727 10.8113 94.2153 10.956C94.458 11.096 94.7147 11.166 94.9853 11.166ZM107.351 9.458V13H105.251V9.486C105.251 9.18267 105.188 8.905 105.062 8.653C104.936 8.401 104.759 8.20033 104.53 8.051C104.301 7.897 104.033 7.82 103.725 7.82C103.422 7.82 103.167 7.897 102.962 8.051C102.757 8.20033 102.6 8.401 102.493 8.653C102.39 8.905 102.339 9.18267 102.339 9.486V13H100.239V6H102.339V6.644C102.558 6.392 102.813 6.189 103.102 6.035C103.391 5.881 103.725 5.804 104.103 5.804C104.775 5.804 105.351 5.96967 105.832 6.301C106.317 6.62767 106.691 7.06867 106.952 7.624C107.213 8.17467 107.346 8.786 107.351 9.458ZM113.745 2.5H115.845V13H113.745V12.356C113.531 12.5987 113.274 12.797 112.975 12.951C112.681 13.105 112.345 13.182 111.967 13.182C111.459 13.182 110.983 13.0863 110.539 12.895C110.096 12.7037 109.704 12.44 109.363 12.104C109.027 11.7633 108.764 11.3713 108.572 10.928C108.381 10.4847 108.285 10.0087 108.285 9.5C108.285 8.99133 108.381 8.51533 108.572 8.072C108.764 7.62867 109.027 7.239 109.363 6.903C109.704 6.56233 110.096 6.29633 110.539 6.105C110.983 5.91367 111.459 5.818 111.967 5.818C112.345 5.818 112.681 5.895 112.975 6.049C113.274 6.19833 113.531 6.39667 113.745 6.644V2.5ZM111.995 11.166C112.285 11.166 112.548 11.0913 112.786 10.942C113.024 10.7927 113.213 10.592 113.353 10.34C113.493 10.088 113.563 9.808 113.563 9.5C113.563 9.192 113.493 8.912 113.353 8.66C113.213 8.408 113.024 8.20733 112.786 8.058C112.548 7.90867 112.285 7.834 111.995 7.834C111.711 7.834 111.449 7.90867 111.211 8.058C110.978 8.20733 110.791 8.408 110.651 8.66C110.511 8.912 110.441 9.192 110.441 9.5C110.441 9.808 110.511 10.088 110.651 10.34C110.791 10.592 110.978 10.7927 111.211 10.942C111.449 11.0913 111.711 11.166 111.995 11.166Z" fill="#F0F5F9"/>
<path d="M39.72 28V19.6H40.368V27.352H44.34V28H39.72ZM50.1583 22H50.8063V28H50.1583L50.1403 26.77C49.9363 27.186 49.6463 27.522 49.2703 27.778C48.8943 28.03 48.4423 28.156 47.9143 28.156C47.4743 28.156 47.0623 28.074 46.6783 27.91C46.2983 27.742 45.9623 27.514 45.6703 27.226C45.3823 26.934 45.1563 26.598 44.9923 26.218C44.8283 25.834 44.7463 25.422 44.7463 24.982C44.7463 24.546 44.8263 24.138 44.9863 23.758C45.1463 23.378 45.3703 23.044 45.6583 22.756C45.9503 22.464 46.2843 22.238 46.6603 22.078C47.0403 21.914 47.4463 21.832 47.8783 21.832C48.4143 21.832 48.8763 21.962 49.2643 22.222C49.6563 22.478 49.9603 22.814 50.1763 23.23L50.1583 22ZM47.9263 27.52C48.3903 27.52 48.7863 27.406 49.1143 27.178C49.4423 26.95 49.6923 26.644 49.8643 26.26C50.0363 25.872 50.1183 25.446 50.1103 24.982C50.1023 24.514 50.0063 24.09 49.8223 23.71C49.6423 23.33 49.3863 23.028 49.0543 22.804C48.7263 22.58 48.3343 22.468 47.8783 22.468C47.4143 22.468 46.9923 22.584 46.6123 22.816C46.2323 23.044 45.9323 23.35 45.7123 23.734C45.4923 24.118 45.3863 24.546 45.3943 25.018C45.4063 25.486 45.5283 25.91 45.7603 26.29C45.9963 26.666 46.3043 26.966 46.6843 27.19C47.0643 27.41 47.4783 27.52 47.9263 27.52ZM54.9862 28V22H55.6342V23.08C55.8502 22.712 56.0882 22.418 56.3482 22.198C56.6082 21.974 56.9482 21.862 57.3682 21.862C57.8962 21.862 58.3362 22 58.6882 22.276C59.0442 22.548 59.3202 22.916 59.5162 23.38C59.7202 22.904 60.0022 22.532 60.3622 22.264C60.7222 21.996 61.1582 21.862 61.6702 21.862C62.1742 21.862 62.6022 21.994 62.9542 22.258C63.3102 22.518 63.5822 22.866 63.7702 23.302C63.9582 23.734 64.0522 24.208 64.0522 24.724V28H63.4042V24.724C63.4042 24.316 63.3362 23.946 63.2002 23.614C63.0682 23.278 62.8722 23.01 62.6122 22.81C62.3562 22.61 62.0422 22.51 61.6702 22.51C61.2982 22.51 60.9742 22.61 60.6982 22.81C60.4262 23.01 60.2142 23.278 60.0622 23.614C59.9142 23.946 59.8402 24.316 59.8402 24.724V28H59.1922V24.724C59.1922 24.316 59.1182 23.946 58.9702 23.614C58.8222 23.278 58.6102 23.01 58.3342 22.81C58.0622 22.61 57.7402 22.51 57.3682 22.51C57.0282 22.51 56.7262 22.618 56.4622 22.834C56.2022 23.046 55.9982 23.328 55.8502 23.68C55.7062 24.032 55.6342 24.41 55.6342 24.814V28H54.9862ZM65.3489 25.252V22H65.9969V25.228C65.9969 25.648 66.0849 26.032 66.2609 26.38C66.4409 26.728 66.6809 27.006 66.9809 27.214C67.2809 27.418 67.6169 27.52 67.9889 27.52C68.3529 27.52 68.6829 27.418 68.9789 27.214C69.2749 27.006 69.5089 26.728 69.6809 26.38C69.8529 26.032 69.9389 25.648 69.9389 25.228V22H70.5869V28H69.9389V26.902C69.7069 27.294 69.4169 27.602 69.0689 27.826C68.7249 28.05 68.3429 28.162 67.9229 28.162C67.4229 28.162 66.9809 28.028 66.5969 27.76C66.2129 27.492 65.9109 27.138 65.6909 26.698C65.4709 26.254 65.3569 25.772 65.3489 25.252ZM73.9666 28.114C73.6346 28.11 73.3086 28.052 72.9886 27.94C72.6726 27.824 72.3966 27.67 72.1606 27.478C71.9246 27.286 71.7606 27.068 71.6686 26.824L72.2386 26.578C72.3066 26.758 72.4366 26.92 72.6286 27.064C72.8246 27.208 73.0446 27.322 73.2886 27.406C73.5366 27.486 73.7786 27.526 74.0146 27.526C74.2826 27.526 74.5346 27.48 74.7706 27.388C75.0066 27.296 75.1986 27.166 75.3466 26.998C75.4946 26.83 75.5686 26.632 75.5686 26.404C75.5686 26.164 75.4906 25.976 75.3346 25.84C75.1786 25.7 74.9786 25.588 74.7346 25.504C74.4946 25.416 74.2466 25.334 73.9906 25.258C73.5506 25.13 73.1686 25 72.8446 24.868C72.5246 24.732 72.2766 24.56 72.1006 24.352C71.9246 24.144 71.8366 23.87 71.8366 23.53C71.8366 23.178 71.9386 22.872 72.1426 22.612C72.3466 22.352 72.6146 22.152 72.9466 22.012C73.2786 21.868 73.6346 21.796 74.0146 21.796C74.5066 21.796 74.9526 21.904 75.3526 22.12C75.7566 22.336 76.0406 22.62 76.2046 22.972L75.6766 23.284C75.5966 23.1 75.4706 22.942 75.2986 22.81C75.1266 22.678 74.9306 22.576 74.7106 22.504C74.4906 22.432 74.2686 22.394 74.0446 22.39C73.7646 22.386 73.5026 22.43 73.2586 22.522C73.0186 22.61 72.8246 22.74 72.6766 22.912C72.5286 23.08 72.4546 23.284 72.4546 23.524C72.4546 23.764 72.5226 23.948 72.6586 24.076C72.7946 24.204 72.9846 24.308 73.2286 24.388C73.4726 24.464 73.7546 24.554 74.0746 24.658C74.4466 24.774 74.7926 24.904 75.1126 25.048C75.4366 25.188 75.6966 25.364 75.8926 25.576C76.0926 25.788 76.1906 26.062 76.1866 26.398C76.1866 26.75 76.0806 27.056 75.8686 27.316C75.6606 27.576 75.3866 27.776 75.0466 27.916C74.7106 28.056 74.3506 28.122 73.9666 28.114ZM77.2317 22H77.8797V28H77.2317V22ZM77.5617 20.746C77.4497 20.746 77.3537 20.71 77.2737 20.638C77.1977 20.562 77.1597 20.468 77.1597 20.356C77.1597 20.244 77.1977 20.152 77.2737 20.08C77.3537 20.004 77.4497 19.966 77.5617 19.966C77.6697 19.966 77.7617 20.004 77.8377 20.08C77.9177 20.152 77.9577 20.244 77.9577 20.356C77.9577 20.468 77.9177 20.562 77.8377 20.638C77.7617 20.71 77.6697 20.746 77.5617 20.746ZM82.386 28.168C81.806 28.168 81.276 28.026 80.796 27.742C80.32 27.458 79.94 27.076 79.656 26.596C79.372 26.116 79.23 25.584 79.23 25C79.23 24.564 79.312 24.156 79.476 23.776C79.64 23.396 79.866 23.062 80.154 22.774C80.446 22.482 80.782 22.254 81.162 22.09C81.542 21.926 81.95 21.844 82.386 21.844C82.918 21.844 83.374 21.972 83.754 22.228C84.138 22.484 84.436 22.82 84.648 23.236V22H85.296V31H84.648V26.776C84.436 27.192 84.138 27.528 83.754 27.784C83.374 28.04 82.918 28.168 82.386 28.168ZM82.392 22.48C81.928 22.48 81.506 22.594 81.126 22.822C80.75 23.05 80.45 23.356 80.226 23.74C80.002 24.12 79.89 24.54 79.89 25C79.89 25.476 80.004 25.906 80.232 26.29C80.46 26.67 80.764 26.972 81.144 27.196C81.524 27.42 81.94 27.532 82.392 27.532C82.852 27.532 83.246 27.418 83.574 27.19C83.906 26.958 84.16 26.65 84.336 26.266C84.512 25.882 84.6 25.46 84.6 25C84.6 24.532 84.51 24.108 84.33 23.728C84.154 23.348 83.9 23.046 83.568 22.822C83.24 22.594 82.848 22.48 82.392 22.48ZM86.6536 25.252V22H87.3016V25.228C87.3016 25.648 87.3896 26.032 87.5656 26.38C87.7456 26.728 87.9856 27.006 88.2856 27.214C88.5856 27.418 88.9216 27.52 89.2936 27.52C89.6576 27.52 89.9876 27.418 90.2836 27.214C90.5796 27.006 90.8136 26.728 90.9856 26.38C91.1576 26.032 91.2436 25.648 91.2436 25.228V22H91.8916V28H91.2436V26.902C91.0116 27.294 90.7216 27.602 90.3736 27.826C90.0296 28.05 89.6476 28.162 89.2276 28.162C88.7276 28.162 88.2856 28.028 87.9016 27.76C87.5176 27.492 87.2156 27.138 86.9956 26.698C86.7756 26.254 86.6616 25.772 86.6536 25.252ZM95.9264 28.156C95.3744 28.156 94.8704 28.014 94.4144 27.73C93.9624 27.446 93.6004 27.066 93.3284 26.59C93.0604 26.11 92.9264 25.58 92.9264 25C92.9264 24.56 93.0044 24.15 93.1604 23.77C93.3164 23.386 93.5304 23.05 93.8024 22.762C94.0784 22.47 94.3984 22.242 94.7624 22.078C95.1264 21.914 95.5144 21.832 95.9264 21.832C96.3624 21.832 96.7644 21.918 97.1324 22.09C97.5044 22.258 97.8244 22.496 98.0924 22.804C98.3604 23.112 98.5664 23.476 98.7104 23.896C98.8544 24.312 98.9204 24.768 98.9084 25.264H93.6044C93.6484 25.692 93.7764 26.076 93.9884 26.416C94.2044 26.752 94.4804 27.018 94.8164 27.214C95.1524 27.406 95.5224 27.504 95.9264 27.508C96.3704 27.508 96.7704 27.392 97.1264 27.16C97.4824 26.924 97.7684 26.602 97.9844 26.194L98.6384 26.344C98.3984 26.876 98.0364 27.312 97.5524 27.652C97.0684 27.988 96.5264 28.156 95.9264 28.156ZM93.5864 24.712H98.2544C98.2304 24.3 98.1104 23.922 97.8944 23.578C97.6824 23.23 97.4044 22.952 97.0604 22.744C96.7164 22.536 96.3384 22.432 95.9264 22.432C95.5144 22.432 95.1384 22.534 94.7984 22.738C94.4584 22.942 94.1804 23.218 93.9644 23.566C93.7524 23.91 93.6264 24.292 93.5864 24.712ZM108.002 22H108.65V28H108.002L107.984 26.77C107.78 27.186 107.49 27.522 107.114 27.778C106.738 28.03 106.286 28.156 105.758 28.156C105.318 28.156 104.906 28.074 104.522 27.91C104.142 27.742 103.806 27.514 103.514 27.226C103.226 26.934 103 26.598 102.836 26.218C102.672 25.834 102.59 25.422 102.59 24.982C102.59 24.546 102.67 24.138 102.83 23.758C102.99 23.378 103.214 23.044 103.502 22.756C103.794 22.464 104.128 22.238 104.504 22.078C104.884 21.914 105.29 21.832 105.722 21.832C106.258 21.832 106.72 21.962 107.108 22.222C107.5 22.478 107.804 22.814 108.02 23.23L108.002 22ZM105.77 27.52C106.234 27.52 106.63 27.406 106.958 27.178C107.286 26.95 107.536 26.644 107.708 26.26C107.88 25.872 107.962 25.446 107.954 24.982C107.946 24.514 107.85 24.09 107.666 23.71C107.486 23.33 107.23 23.028 106.898 22.804C106.57 22.58 106.178 22.468 105.722 22.468C105.258 22.468 104.836 22.584 104.456 22.816C104.076 23.044 103.776 23.35 103.556 23.734C103.336 24.118 103.23 24.546 103.238 25.018C103.25 25.486 103.372 25.91 103.604 26.29C103.84 26.666 104.148 26.966 104.528 27.19C104.908 27.41 105.322 27.52 105.77 27.52ZM110.091 25.252V22H110.739V25.228C110.739 25.648 110.827 26.032 111.003 26.38C111.183 26.728 111.423 27.006 111.723 27.214C112.023 27.418 112.359 27.52 112.731 27.52C113.095 27.52 113.425 27.418 113.721 27.214C114.017 27.006 114.251 26.728 114.423 26.38C114.595 26.032 114.681 25.648 114.681 25.228V22H115.329V28H114.681V26.902C114.449 27.294 114.159 27.602 113.811 27.826C113.467 28.05 113.085 28.162 112.665 28.162C112.165 28.162 111.723 28.028 111.339 27.76C110.955 27.492 110.653 27.138 110.433 26.698C110.213 26.254 110.099 25.772 110.091 25.252ZM122.564 21.832C123.144 21.832 123.672 21.974 124.148 22.258C124.628 22.542 125.01 22.924 125.294 23.404C125.578 23.88 125.72 24.41 125.72 24.994C125.72 25.43 125.638 25.84 125.474 26.224C125.31 26.604 125.082 26.94 124.79 27.232C124.502 27.52 124.168 27.746 123.788 27.91C123.408 28.074 123 28.156 122.564 28.156C122.032 28.156 121.574 28.028 121.19 27.772C120.81 27.516 120.514 27.18 120.302 26.764V28H119.654V19H120.302V23.224C120.514 22.808 120.81 22.472 121.19 22.216C121.574 21.96 122.032 21.832 122.564 21.832ZM122.558 27.52C123.022 27.52 123.442 27.406 123.818 27.178C124.198 26.95 124.5 26.646 124.724 26.266C124.952 25.882 125.066 25.458 125.066 24.994C125.066 24.522 124.95 24.096 124.718 23.716C124.486 23.332 124.18 23.028 123.8 22.804C123.424 22.58 123.01 22.468 122.558 22.468C122.098 22.468 121.702 22.582 121.37 22.81C121.042 23.038 120.79 23.344 120.614 23.728C120.438 24.112 120.35 24.534 120.35 24.994C120.35 25.466 120.438 25.892 120.614 26.272C120.794 26.652 121.048 26.956 121.376 27.184C121.708 27.408 122.102 27.52 122.558 27.52ZM129.325 28.156C128.773 28.156 128.269 28.014 127.813 27.73C127.361 27.446 126.999 27.066 126.727 26.59C126.459 26.11 126.325 25.58 126.325 25C126.325 24.56 126.403 24.15 126.559 23.77C126.715 23.386 126.929 23.05 127.201 22.762C127.477 22.47 127.797 22.242 128.161 22.078C128.525 21.914 128.913 21.832 129.325 21.832C129.877 21.832 130.379 21.974 130.831 22.258C131.287 22.542 131.649 22.924 131.917 23.404C132.189 23.884 132.325 24.416 132.325 25C132.325 25.436 132.247 25.844 132.091 26.224C131.935 26.604 131.719 26.94 131.443 27.232C131.171 27.52 130.853 27.746 130.489 27.91C130.129 28.074 129.741 28.156 129.325 28.156ZM129.325 27.508C129.769 27.508 130.167 27.392 130.519 27.16C130.875 26.928 131.157 26.622 131.365 26.242C131.573 25.862 131.677 25.448 131.677 25C131.677 24.548 131.573 24.13 131.365 23.746C131.157 23.362 130.875 23.056 130.519 22.828C130.163 22.596 129.765 22.48 129.325 22.48C128.881 22.48 128.481 22.596 128.125 22.828C127.769 23.06 127.487 23.368 127.279 23.752C127.075 24.132 126.973 24.548 126.973 25C126.973 25.468 127.079 25.892 127.291 26.272C127.507 26.648 127.793 26.948 128.149 27.172C128.505 27.396 128.897 27.508 129.325 27.508ZM133.283 25.252V22H133.931V25.228C133.931 25.648 134.019 26.032 134.195 26.38C134.375 26.728 134.615 27.006 134.915 27.214C135.215 27.418 135.551 27.52 135.923 27.52C136.287 27.52 136.617 27.418 136.913 27.214C137.209 27.006 137.443 26.728 137.615 26.38C137.787 26.032 137.873 25.648 137.873 25.228V22H138.521V28H137.873V26.902C137.641 27.294 137.351 27.602 137.003 27.826C136.659 28.05 136.277 28.162 135.857 28.162C135.357 28.162 134.915 28.028 134.531 27.76C134.147 27.492 133.845 27.138 133.625 26.698C133.405 26.254 133.291 25.772 133.283 25.252ZM142.98 22.648H141.462L141.456 28H140.808L140.814 22.648H139.668V22H140.814L140.808 20.116H141.456L141.462 22H142.98V22.648ZM151.993 19H152.641V28H151.993V26.764C151.785 27.184 151.489 27.522 151.105 27.778C150.721 28.03 150.263 28.156 149.731 28.156C149.295 28.156 148.887 28.074 148.507 27.91C148.127 27.746 147.791 27.52 147.499 27.232C147.211 26.94 146.985 26.604 146.821 26.224C146.657 25.844 146.575 25.436 146.575 25C146.575 24.564 146.657 24.156 146.821 23.776C146.985 23.392 147.211 23.056 147.499 22.768C147.791 22.476 148.127 22.248 148.507 22.084C148.887 21.92 149.295 21.838 149.731 21.838C150.263 21.838 150.721 21.966 151.105 22.222C151.489 22.474 151.785 22.808 151.993 23.224V19ZM149.737 27.52C150.197 27.52 150.591 27.408 150.919 27.184C151.251 26.956 151.505 26.65 151.681 26.266C151.857 25.882 151.945 25.46 151.945 25C151.945 24.528 151.855 24.102 151.675 23.722C151.499 23.338 151.245 23.034 150.913 22.81C150.585 22.582 150.193 22.468 149.737 22.468C149.277 22.468 148.857 22.582 148.477 22.81C148.101 23.038 147.799 23.344 147.571 23.728C147.347 24.112 147.235 24.536 147.235 25C147.235 25.472 147.349 25.898 147.577 26.278C147.809 26.658 148.115 26.96 148.495 27.184C148.875 27.408 149.289 27.52 149.737 27.52ZM156.84 28.156C156.288 28.156 155.784 28.014 155.328 27.73C154.876 27.446 154.514 27.066 154.242 26.59C153.974 26.11 153.84 25.58 153.84 25C153.84 24.56 153.918 24.15 154.074 23.77C154.23 23.386 154.444 23.05 154.716 22.762C154.992 22.47 155.312 22.242 155.676 22.078C156.04 21.914 156.428 21.832 156.84 21.832C157.276 21.832 157.678 21.918 158.046 22.09C158.418 22.258 158.738 22.496 159.006 22.804C159.274 23.112 159.48 23.476 159.624 23.896C159.768 24.312 159.834 24.768 159.822 25.264H154.518C154.562 25.692 154.69 26.076 154.902 26.416C155.118 26.752 155.394 27.018 155.73 27.214C156.066 27.406 156.436 27.504 156.84 27.508C157.284 27.508 157.684 27.392 158.04 27.16C158.396 26.924 158.682 26.602 158.898 26.194L159.552 26.344C159.312 26.876 158.95 27.312 158.466 27.652C157.982 27.988 157.44 28.156 156.84 28.156ZM154.5 24.712H159.168C159.144 24.3 159.024 23.922 158.808 23.578C158.596 23.23 158.318 22.952 157.974 22.744C157.63 22.536 157.252 22.432 156.84 22.432C156.428 22.432 156.052 22.534 155.712 22.738C155.372 22.942 155.094 23.218 154.878 23.566C154.666 23.91 154.54 24.292 154.5 24.712ZM162.853 28.114C162.521 28.11 162.195 28.052 161.875 27.94C161.559 27.824 161.283 27.67 161.047 27.478C160.811 27.286 160.647 27.068 160.555 26.824L161.125 26.578C161.193 26.758 161.323 26.92 161.515 27.064C161.711 27.208 161.931 27.322 162.175 27.406C162.423 27.486 162.665 27.526 162.901 27.526C163.169 27.526 163.421 27.48 163.657 27.388C163.893 27.296 164.085 27.166 164.233 26.998C164.381 26.83 164.455 26.632 164.455 26.404C164.455 26.164 164.377 25.976 164.221 25.84C164.065 25.7 163.865 25.588 163.621 25.504C163.381 25.416 163.133 25.334 162.877 25.258C162.437 25.13 162.055 25 161.731 24.868C161.411 24.732 161.163 24.56 160.987 24.352C160.811 24.144 160.723 23.87 160.723 23.53C160.723 23.178 160.825 22.872 161.029 22.612C161.233 22.352 161.501 22.152 161.833 22.012C162.165 21.868 162.521 21.796 162.901 21.796C163.393 21.796 163.839 21.904 164.239 22.12C164.643 22.336 164.927 22.62 165.091 22.972L164.563 23.284C164.483 23.1 164.357 22.942 164.185 22.81C164.013 22.678 163.817 22.576 163.597 22.504C163.377 22.432 163.155 22.394 162.931 22.39C162.651 22.386 162.389 22.43 162.145 22.522C161.905 22.61 161.711 22.74 161.563 22.912C161.415 23.08 161.341 23.284 161.341 23.524C161.341 23.764 161.409 23.948 161.545 24.076C161.681 24.204 161.871 24.308 162.115 24.388C162.359 24.464 162.641 24.554 162.961 24.658C163.333 24.774 163.679 24.904 163.999 25.048C164.323 25.188 164.583 25.364 164.779 25.576C164.979 25.788 165.077 26.062 165.073 26.398C165.073 26.75 164.967 27.056 164.755 27.316C164.547 27.576 164.273 27.776 163.933 27.916C163.597 28.056 163.237 28.122 162.853 28.114ZM174.118 19H174.766V28H174.118V26.764C173.91 27.184 173.614 27.522 173.23 27.778C172.846 28.03 172.388 28.156 171.856 28.156C171.42 28.156 171.012 28.074 170.632 27.91C170.252 27.746 169.916 27.52 169.624 27.232C169.336 26.94 169.11 26.604 168.946 26.224C168.782 25.844 168.7 25.436 168.7 25C168.7 24.564 168.782 24.156 168.946 23.776C169.11 23.392 169.336 23.056 169.624 22.768C169.916 22.476 170.252 22.248 170.632 22.084C171.012 21.92 171.42 21.838 171.856 21.838C172.388 21.838 172.846 21.966 173.23 22.222C173.614 22.474 173.91 22.808 174.118 23.224V19ZM171.862 27.52C172.322 27.52 172.716 27.408 173.044 27.184C173.376 26.956 173.63 26.65 173.806 26.266C173.982 25.882 174.07 25.46 174.07 25C174.07 24.528 173.98 24.102 173.8 23.722C173.624 23.338 173.37 23.034 173.038 22.81C172.71 22.582 172.318 22.468 171.862 22.468C171.402 22.468 170.982 22.582 170.602 22.81C170.226 23.038 169.924 23.344 169.696 23.728C169.472 24.112 169.36 24.536 169.36 25C169.36 25.472 169.474 25.898 169.702 26.278C169.934 26.658 170.24 26.96 170.62 27.184C171 27.408 171.414 27.52 171.862 27.52ZM178.965 28.156C178.413 28.156 177.909 28.014 177.453 27.73C177.001 27.446 176.639 27.066 176.367 26.59C176.099 26.11 175.965 25.58 175.965 25C175.965 24.56 176.043 24.15 176.199 23.77C176.355 23.386 176.569 23.05 176.841 22.762C177.117 22.47 177.437 22.242 177.801 22.078C178.165 21.914 178.553 21.832 178.965 21.832C179.517 21.832 180.019 21.974 180.471 22.258C180.927 22.542 181.289 22.924 181.557 23.404C181.829 23.884 181.965 24.416 181.965 25C181.965 25.436 181.887 25.844 181.731 26.224C181.575 26.604 181.359 26.94 181.083 27.232C180.811 27.52 180.493 27.746 180.129 27.91C179.769 28.074 179.381 28.156 178.965 28.156ZM178.965 27.508C179.409 27.508 179.807 27.392 180.159 27.16C180.515 26.928 180.797 26.622 181.005 26.242C181.213 25.862 181.317 25.448 181.317 25C181.317 24.548 181.213 24.13 181.005 23.746C180.797 23.362 180.515 23.056 180.159 22.828C179.803 22.596 179.405 22.48 178.965 22.48C178.521 22.48 178.121 22.596 177.765 22.828C177.409 23.06 177.127 23.368 176.919 23.752C176.715 24.132 176.613 24.548 176.613 25C176.613 25.468 176.719 25.892 176.931 26.272C177.147 26.648 177.433 26.948 177.789 27.172C178.145 27.396 178.537 27.508 178.965 27.508ZM182.923 22H183.571V28H182.923V22ZM183.253 20.746C183.141 20.746 183.045 20.71 182.965 20.638C182.889 20.562 182.851 20.468 182.851 20.356C182.851 20.244 182.889 20.152 182.965 20.08C183.045 20.004 183.141 19.966 183.253 19.966C183.361 19.966 183.453 20.004 183.529 20.08C183.609 20.152 183.649 20.244 183.649 20.356C183.649 20.468 183.609 20.562 183.529 20.638C183.453 20.71 183.361 20.746 183.253 20.746ZM190.027 22H190.675V28.252C190.675 28.624 190.593 28.974 190.429 29.302C190.269 29.634 190.051 29.926 189.775 30.178C189.499 30.434 189.185 30.634 188.833 30.778C188.485 30.926 188.125 31 187.753 31C187.337 31 186.935 30.902 186.547 30.706C186.159 30.514 185.823 30.256 185.539 29.932C185.259 29.608 185.065 29.254 184.957 28.87L185.557 28.594C185.629 28.918 185.777 29.212 186.001 29.476C186.225 29.744 186.491 29.956 186.799 30.112C187.111 30.268 187.429 30.346 187.753 30.346C188.041 30.346 188.321 30.29 188.593 30.178C188.865 30.066 189.109 29.912 189.325 29.716C189.541 29.524 189.711 29.302 189.835 29.05C189.963 28.798 190.027 28.532 190.027 28.252V26.782C189.815 27.19 189.521 27.522 189.145 27.778C188.769 28.03 188.331 28.156 187.831 28.156C187.415 28.156 187.023 28.074 186.655 27.91C186.287 27.746 185.965 27.52 185.689 27.232C185.413 26.94 185.195 26.604 185.035 26.224C184.879 25.844 184.801 25.436 184.801 25C184.801 24.564 184.879 24.156 185.035 23.776C185.195 23.392 185.413 23.056 185.689 22.768C185.965 22.476 186.287 22.248 186.655 22.084C187.023 21.92 187.415 21.838 187.831 21.838C188.331 21.838 188.769 21.964 189.145 22.216C189.521 22.464 189.815 22.796 190.027 23.212V22ZM187.837 27.52C188.285 27.52 188.669 27.404 188.989 27.172C189.313 26.94 189.561 26.632 189.733 26.248C189.909 25.864 189.997 25.448 189.997 25C189.997 24.54 189.909 24.12 189.733 23.74C189.557 23.356 189.307 23.048 188.983 22.816C188.659 22.584 188.277 22.468 187.837 22.468C187.397 22.468 186.997 22.582 186.637 22.81C186.277 23.038 185.991 23.344 185.779 23.728C185.567 24.112 185.461 24.536 185.461 25C185.461 25.468 185.569 25.892 185.785 26.272C186.001 26.652 186.289 26.956 186.649 27.184C187.009 27.408 187.405 27.52 187.837 27.52ZM195.129 22.648H193.611L193.605 28H192.957L192.963 22.648H191.817V22H192.963L192.957 20.116H193.605L193.611 22H195.129V22.648ZM198.092 28.114C197.76 28.11 197.434 28.052 197.114 27.94C196.798 27.824 196.522 27.67 196.286 27.478C196.05 27.286 195.886 27.068 195.794 26.824L196.364 26.578C196.432 26.758 196.562 26.92 196.754 27.064C196.95 27.208 197.17 27.322 197.414 27.406C197.662 27.486 197.904 27.526 198.14 27.526C198.408 27.526 198.66 27.48 198.896 27.388C199.132 27.296 199.324 27.166 199.472 26.998C199.62 26.83 199.694 26.632 199.694 26.404C199.694 26.164 199.616 25.976 199.46 25.84C199.304 25.7 199.104 25.588 198.86 25.504C198.62 25.416 198.372 25.334 198.116 25.258C197.676 25.13 197.294 25 196.97 24.868C196.65 24.732 196.402 24.56 196.226 24.352C196.05 24.144 195.962 23.87 195.962 23.53C195.962 23.178 196.064 22.872 196.268 22.612C196.472 22.352 196.74 22.152 197.072 22.012C197.404 21.868 197.76 21.796 198.14 21.796C198.632 21.796 199.078 21.904 199.478 22.12C199.882 22.336 200.166 22.62 200.33 22.972L199.802 23.284C199.722 23.1 199.596 22.942 199.424 22.81C199.252 22.678 199.056 22.576 198.836 22.504C198.616 22.432 198.394 22.394 198.17 22.39C197.89 22.386 197.628 22.43 197.384 22.522C197.144 22.61 196.95 22.74 196.802 22.912C196.654 23.08 196.58 23.284 196.58 23.524C196.58 23.764 196.648 23.948 196.784 24.076C196.92 24.204 197.11 24.308 197.354 24.388C197.598 24.464 197.88 24.554 198.2 24.658C198.572 24.774 198.918 24.904 199.238 25.048C199.562 25.188 199.822 25.364 200.018 25.576C200.218 25.788 200.316 26.062 200.312 26.398C200.312 26.75 200.206 27.056 199.994 27.316C199.786 27.576 199.512 27.776 199.172 27.916C198.836 28.056 198.476 28.122 198.092 28.114Z" fill="#F0F5F9"/>
<rect y="12" width="2" height="6" fill="#F0F5F9"/>
<rect x="3" y="8" width="2" height="14" fill="#F0F5F9"/>
<rect x="6" y="2" width="2" height="26" fill="#F0F5F9"/>
<rect x="9" y="11" width="2" height="8" fill="#F0F5F9"/>
<rect x="12" y="8" width="2" height="14" fill="#F0F5F9"/>
<rect x="15" y="6" width="2" height="18" fill="#F0F5F9"/>
<rect x="18" y="13" width="2" height="4" fill="#F0F5F9"/>
</svg>
